#!OML:ASF I:\Actors\actors\Patient Classification 1\Patient 1\Session 1\Subject1.ASF
:FULLY-SPECIFIED
:DEGREES
204
root 0.261601 17.523 8.97893 10.0316 2.40397 -9.32578
lowerback 5.12643 0.459778 8.46735
upperback -7.60285 1.72665 2.17903
thorax -10.9363 0.253922 -2.62764
lowerneck -16.4553 -3.63911 -1.81543
upperneck 17.4123 -5.77585 5.88002
head 8.36264 -2.25178 1.57242
rclavicle 1.4387e-014 -1.80894e-014
rhumerus 11.7264 17.8693 -78.5204
rradius 76.6936
rwrist 4.5902
rhand 18.9533 -61.1028
rfingers 7.12502
rthumb 43.5588 -85.1483
lclavicle 1.4387e-014 -1.80894e-014
lhumerus -0.830422 -29.5171 95.3913
lradius 58.6551
lwrist 12.8101
lhand -40.6358 -22.4749
lfingers 7.12502
lthumb -13.5807 7.06214
rfemur -8.25416 20.6572 27.0188
rtibia 7.20853
rfoot -12.6562 -24.8593
rtoes 7.14879
lfemur -2.65262 -36.9376 -4.78757
ltibia -2.1576
lfoot -14.0004 44.1226
ltoes 2.02646
205
root 0.268784 17.5364 8.98238 10.5123 1.89227 -8.70148
lowerback 4.93971 0.652793 7.75588
upperback -7.63427 1.86094 1.82611
thorax -10.8344 0.362019 -2.62999
lowerneck -16.3426 -3.73096 -1.7386
upperneck 16.8194 -5.92985 6.10622
head 8.15635 -2.31226 1.61772
rclavicle 2.40157e-014 -1.09332e-014
rhumerus 16.2127 17.7034 -77.8802
rradius 71.5244
rwrist 5.51482
rhand 19.3053 -62.8068
rfingers 7.12502
rthumb 43.8874 -86.7316
lclavicle 2.40157e-014 -1.09332e-014
lhumerus -0.522504 -29.7466 95.5973
lradius 58.4171
lwrist 12.4345
lhand -40.9197 -22.6158
lfingers 7.12502
lthumb -13.8543 6.90275
rfemur -8.76975 21.2028 25.9786
rtibia 7.06748
rfoot -12.5252 -24.963
rtoes 7.01223
lfemur -3.01969 -37.4877 -5.36386
ltibia -2.11633
lfoot -14.7619 45.0187
ltoes 3.18952
206
root 0.278464 17.5438 8.98608 10.8459 1.51419 -8.39949
lowerback 4.83392 0.773177 7.40226
upperback -7.56841 1.95254 1.62033
thorax -10.6807 0.431672 -2.66586
lowerneck -16.4897 -3.76241 -1.80779
upperneck 16.4751 -5.99362 6.40911
head 8.08334 -2.32139 1.71982
rclavicle -2.32702e-014 -1.33186e-014
rhumerus 20.7485 17.9636 -76.8894
rradius 66.0389
rwrist 6.44852
rhand 19.2351 -64.1012
rfingers 7.12502
rthumb 43.8218 -88.0502
lclavicle -2.32702e-014 -1.33186e-014
lhumerus -0.104185 -29.855 95.7698
lradius 58.2011
lwrist 12.235
lhand -41.2975 -22.6489
lfingers 7.12502
lthumb -14.2183 6.84444
rfemur -9.06481 21.5508 25.3991
rtibia 6.86723
rfoot -12.405 -24.9684
rtoes 7.16633
lfemur -3.21651 -38.0071 -5.65772
ltibia -2.13627
lfoot -15.3542 45.802
ltoes 4.09833
207
root 0.288676 17.5463 8.98857 11.0119 1.24731 -8.44629
lowerback 4.99805 0.840545 7.29086
upperback -7.49583 2.04324 1.61726
thorax -10.6895 0.485302 -2.62317
lowerneck -16.6014 -3.82369 -1.91557
upperneck 16.1377 -6.06466 6.59706
head 8.00395 -2.34876 1.78942
rclavicle -1.57785e-014 -5.96354e-015
rhumerus 25.3896 18.9983 -74.9303
rradius 60.6043
rwrist 6.89483
rhand 19.1748 -65.7982
rfingers 7.12502
rthumb 43.7656 -89.768
lclavicle -1.57785e-014 -5.96354e-015
lhumerus 0.249146 -29.8369 96.0717
lradius 57.9963
lwrist 12.1629
lhand -41.6122 -22.7521
lfingers 7.12502
lthumb -14.5215 6.71966
rfemur -9.15248 21.675 25.3204
rtibia 6.65834
rfoot -12.2569 -24.839
rtoes 7.38897
lfemur -3.23149 -38.3132 -5.63781
ltibia -2.18424
lfoot -15.7941 46.3056
ltoes 4.91708
208
root 0.296615 17.5478 8.99189 11.1573 1.06239 -8.59224
lowerback 5.23728 0.926051 7.23991
upperback -7.46593 2.17594 1.6272
thorax -10.7885 0.550861 -2.60817
lowerneck -16.6072 -3.95125 -1.96381
upperneck 15.7566 -6.23435 6.7671
head 7.89418 -2.42464 1.83267
rclavicle 5.03174e-016 -1.47101e-014
rhumerus 28.8198 18.9029 -74.5092
rradius 55.1239
rwrist 9.01176
rhand 19.3297 -66.5694
rfingers 7.12502
rthumb 43.9101 -269.514
lclavicle 5.03174e-016 -1.47101e-014
lhumerus 0.509164 -30.0036 96.3978
lradius 57.7811
lwrist 12.1089
lhand -41.7985 -22.886
lfingers 7.12502
lthumb -14.701 6.57277
rfemur -9.21479 21.7769 25.3831
rtibia 6.45901
rfoot -12.1134 -24.7443
rtoes 7.54653
lfemur -3.26786 -38.5621 -5.47868
ltibia -2.21793
lfoot -16.0879 46.7374
ltoes 5.4293
209
root 0.301883 17.5489 8.99666 11.3029 0.975218 -8.79104
lowerback 5.39099 0.992504 7.29745
upperback -7.4094 2.28178 1.61089
thorax -10.8052 0.596969 -2.67628
lowerneck -16.6262 -4.06796 -1.97364
upperneck 15.3193 -6.41245 7.03618
head 7.77217 -2.49415 1.90121
rclavicle -2.23633e-016 5.56597e-015
rhumerus 32.003 18.5173 -74.4175
rradius 49.8842
rwrist 11.4754
rhand 19.5626 -66.1776
rfingers 7.12502
rthumb 44.1274 -269.987
lclavicle -2.23633e-016 5.56597e-015
lhumerus 0.837203 -30.3476 96.537
lradius 57.4821
lwrist 11.8785
lhand -42.1528 -23.2165
lfingers 7.12502
lthumb -15.0424 6.21701
rfemur -9.24324 21.9694 25.5334
rtibia 6.22754
rfoot -11.9871 -24.7846
rtoes 7.58151
lfemur -3.35601 -38.739 -5.2002
ltibia -2.26415
lfoot -16.2617 47.0692
ltoes 5.66625
210
root 0.305004 17.5504 9.00439 11.45 0.925821 -8.88608
lowerback 5.47654 1.04026 7.26288
upperback -7.32698 2.34049 1.55552
thorax -10.7555 0.628851 -2.72697
lowerneck -16.6818 -4.19091 -1.99034
upperneck 14.8536 -6.61195 7.40434
head 7.6536 -2.5655 2.00028
rclavicle 1.88286e-014 -3.57812e-015
rhumerus 35.7904 20.0194 -71.2313
rradius 45.8002
rwrist 10.5532
rhand 19.4175 -67.0046
rfingers 7.12502
rthumb 43.9921 -269.11
lclavicle 1.88286e-014 -3.57812e-015
lhumerus 1.21211 -30.672 96.5633
lradius 57.1674
lwrist 11.6712
lhand -42.5146 -23.8021
lfingers 7.12502
lthumb -15.3908 5.60505
rfemur -9.24432 22.159 25.5737
rtibia 5.96244
rfoot -11.8526 -24.8756
rtoes 7.46399
lfemur -3.4429 -38.9383 -5.03145
ltibia -2.31069
lfoot -16.5251 47.3331
ltoes 6.11572
211
root 0.308546 17.5532 9.01486 11.6329 0.894246 -8.96094
lowerback 5.51792 1.12283 7.27488
upperback -7.27054 2.44207 1.43085
thorax -10.6999 0.674195 -2.88304
lowerneck -16.7405 -4.39445 -2.05589
upperneck 14.4905 -6.92848 7.84042
head 7.58145 -2.68698 2.11516
rclavicle 2.80473e-014 3.22031e-014
rhumerus 37.7736 18.8677 -72.2559
rradius 41.3688
rwrist 13.9153
rhand 19.9815 -67.3333
rfingers 7.12502
rthumb 44.5178 -268.98
lclavicle 2.80473e-014 3.22031e-014
lhumerus 1.51211 -31.0958 96.5764
lradius 56.9784
lwrist 11.5436
lhand -42.5318 -23.8923
lfingers 7.12502
lthumb -15.4074 5.51358
rfemur -9.28799 22.2897 25.5715
rtibia 5.71121
rfoot -11.7376 -24.9411
rtoes 7.53841
lfemur -3.5663 -39.2164 -4.86698
ltibia -2.35217
lfoot -16.7637 47.6464
ltoes 6.43147
212
root 0.312335 17.5584 9.0265 11.8665 0.852579 -9.02756
lowerback 5.50914 1.21937 7.29465
upperback -7.24155 2.56 1.30291
thorax -10.6427 0.726403 -3.04769
lowerneck -16.8229 -4.63334 -2.228
upperneck 14.2547 -7.28555 8.32729
head 7.56547 -2.82529 2.25829
rclavicle 1.46666e-014 3.97569e-016
rhumerus 39.924 19.1048 -71.0764
rradius 38.3925
rwrist 15.0963
rhand 20.4433 -68.468
rfingers 7.12502
rthumb 44.9478 -268.012
lclavicle 1.46666e-014 3.97569e-016
lhumerus 1.78396 -31.6194 96.5632
lradius 56.7949
lwrist 11.2761
lhand -42.4552 -23.195
lfingers 7.12502
lthumb -15.3336 6.21652
rfemur -9.43459 22.403 25.5245
rtibia 5.51464
rfoot -11.618 -24.9616
rtoes 7.69113
lfemur -3.77601 -39.4683 -4.65411
ltibia -2.3895
lfoot -16.8339 47.9664
ltoes 6.32074
213
root 0.315521 17.5641 9.03901 12.0935 0.793351 -9.07196
lowerback 5.50276 1.31703 7.25858
upperback -7.22109 2.67753 1.20904
thorax -10.599 0.783905 -3.14443
lowerneck -16.88 -4.86129 -2.57891
upperneck 14.0231 -7.61126 8.96663
head 7.56097 -2.94506 2.48429
rclavicle 1.93163e-014 1.39149e-014
rhumerus 41.5689 19.1392 -70.3866
rradius 35.8514
rwrist 16.8851
rhand 21.0067 -68.8985
rfingers 7.12502
rthumb 45.4717 -267.79
lclavicle 1.93163e-014 1.39149e-014
lhumerus 2.00511 -32.0006 96.6339
lradius 56.5676
lwrist 11.0602
lhand -42.4016 -22.5197
lfingers 7.12502
lthumb -15.282 6.8957
rfemur -9.59525 22.4693 25.461
rtibia 5.35341
rfoot -11.4555 -24.9398
rtoes 7.60631
lfemur -3.97262 -39.6732 -4.47639
ltibia -2.42683
lfoot -16.8372 48.2636
ltoes 6.19743
214
root 0.318705 17.5693 9.05107 12.2736 0.719281 -9.2044
lowerback 5.55446 1.46015 7.34792
upperback -7.20995 2.8748 1.10118
thorax -10.588 0.867943 -3.33895
lowerneck -16.8117 -5.10598 -2.91688
upperneck 13.7263 -7.95424 9.59647
head 7.51735 -3.0795 2.70456
rclavicle 1.47846e-014 2.38542e-015
rhumerus 42.8124 18.9612 -69.9345
rradius 33.8249
rwrist 18.7774
rhand 22.0055 -69.3464
rfingers 7.12502
rthumb 46.3985 -267.727
lclavicle 1.47846e-014 2.38542e-015
lhumerus 2.14252 -32.4032 96.7557
lradius 56.372
lwrist 11.0714
lhand -42.2438 -22.3377
lfingers 7.12502
lthumb -15.13 7.08924
rfemur -9.71039 22.5066 25.5352
rtibia 5.24562
rfoot -11.323 -24.8901
rtoes 7.47956
lfemur -4.08562 -39.8913 -4.24976
ltibia -2.46527
lfoot -17.2983 48.5649
ltoes 6.89622
215
root 0.322881 17.5754 9.06271 12.4062 0.612261 -9.38157
lowerback 5.65383 1.61443 7.51452
upperback -7.1762 3.09738 0.979175
thorax -10.5726 0.958091 -3.59672
lowerneck -16.7957 -5.3243 -3.03816
upperneck 13.523 -8.28182 10.0134
head 7.49673 -3.21066 2.8204
rclavicle 1.11941e-014 2.26615e-014
rhumerus 43.7165 18.6996 -69.6514
rradius 32.251
rwrist 20.0296
rhand 22.7776 -69.6518
rfingers 7.12502
rthumb 47.1133 -267.732
lclavicle 1.11941e-014 2.26615e-014
lhumerus 2.42795 -32.9585 96.6801
lradius 56.2017
lwrist 11.2472
lhand -42.0069 -22.2281
lfingers 7.12502
lthumb -14.9018 7.21595
rfemur -9.78048 22.5686 25.6741
rtibia 5.16918
rfoot -11.2437 -24.83
rtoes 7.39747
lfemur -4.12743 -40.0988 -4.01909
ltibia -2.48723
lfoot -18.1321 48.8276
ltoes 8.13803
216
root 0.327014 17.5813 9.0747 12.5219 0.462425 -9.54515
lowerback 5.72122 1.7521 7.63216
upperback -7.10779 3.28912 0.880149
thorax -10.5031 1.04158 -3.79626
lowerneck -16.9066 -5.50408 -3.17612
upperneck 13.4817 -8.57611 10.4746
head 7.55404 -3.31319 2.95535
rclavicle 2.3556e-014 8.74653e-015
rhumerus 44.5899 18.8402 -68.791
rradius 31.4347
rwrist 19.8285
rhand 23.1437 -70.2068
rfingers 7.12502
rthumb 47.4517 -267.329
lclavicle 2.3556e-014 8.74653e-015
lhumerus 2.84364 -33.4254 96.4844
lradius 56.1064
lwrist 11.3536
lhand -41.8921 -21.8203
lfingers 7.12502
lthumb -14.7912 7.63191
rfemur -9.82735 22.6364 25.8
rtibia 5.07618
rfoot -11.1648 -24.7359
rtoes 7.41546
lfemur -4.11844 -40.19 -3.83787
ltibia -2.52149
lfoot -18.5177 49.0532
ltoes 8.66064
